<mxfile host="app.diagrams.net" agent="Mozilla/5.0 (X11; Ubuntu; Linux x86_64; rv:135.0) Gecko/20100101 Firefox/135.0" version="26.0.16">
  <diagram id="C5RBs43oDa-KdzZeNtuy" name="Page-1">
    <mxGraphModel dx="794" dy="1153" grid="1" gridSize="10" guides="1" tooltips="1" connect="1" arrows="1" fold="1" page="1" pageScale="1" pageWidth="827" pageHeight="1169" math="0" shadow="0">
      <root>
        <mxCell id="WIyWlLk6GJQsqaUBKTNV-0" />
        <mxCell id="WIyWlLk6GJQsqaUBKTNV-1" parent="WIyWlLk6GJQsqaUBKTNV-0" />
        <mxCell id="PELLuqCs5naIXxOrmulJ-6" style="edgeStyle=orthogonalEdgeStyle;rounded=0;orthogonalLoop=1;jettySize=auto;html=1;entryX=0.5;entryY=0;entryDx=0;entryDy=0;" parent="WIyWlLk6GJQsqaUBKTNV-1" source="WIyWlLk6GJQsqaUBKTNV-3" target="w9apprOF4AOWEV_3NA-S-0" edge="1">
          <mxGeometry relative="1" as="geometry" />
        </mxCell>
        <mxCell id="WIyWlLk6GJQsqaUBKTNV-3" value="&lt;font style=&quot;font-size: 12px;&quot;&gt;Create copy of solution&lt;/font&gt;" style="rounded=1;whiteSpace=wrap;html=1;fontSize=12;glass=0;strokeWidth=1;shadow=0;fillColor=none;" parent="WIyWlLk6GJQsqaUBKTNV-1" vertex="1">
          <mxGeometry x="319" y="50" width="138.5" height="30" as="geometry" />
        </mxCell>
        <mxCell id="Ax_Td3KGCdqjJiNzprw9-13" style="edgeStyle=orthogonalEdgeStyle;rounded=0;orthogonalLoop=1;jettySize=auto;html=1;entryX=0.5;entryY=0;entryDx=0;entryDy=0;" parent="WIyWlLk6GJQsqaUBKTNV-1" source="w9apprOF4AOWEV_3NA-S-0" edge="1">
          <mxGeometry relative="1" as="geometry">
            <mxPoint x="388.2449999999999" y="180" as="targetPoint" />
          </mxGeometry>
        </mxCell>
        <mxCell id="w9apprOF4AOWEV_3NA-S-0" value="Randomly select a seed customer&lt;i&gt; i &lt;/i&gt;from list of planned customers" style="rounded=1;whiteSpace=wrap;html=1;fillColor=none;" parent="WIyWlLk6GJQsqaUBKTNV-1" vertex="1">
          <mxGeometry x="251.63" y="106" width="273.25" height="50" as="geometry" />
        </mxCell>
        <mxCell id="w9apprOF4AOWEV_3NA-S-12" value="Remove both nodes of customer &lt;i&gt;j&lt;/i&gt; from copy of solution" style="rounded=1;whiteSpace=wrap;html=1;fillColor=none;" parent="WIyWlLk6GJQsqaUBKTNV-1" vertex="1">
          <mxGeometry x="139.99999999999997" y="700" width="231.44" height="37" as="geometry" />
        </mxCell>
        <mxCell id="YI5HNqCc5b8djM4Ka2MD-9" style="edgeStyle=orthogonalEdgeStyle;rounded=0;orthogonalLoop=1;jettySize=auto;html=1;exitX=0.5;exitY=1;exitDx=0;exitDy=0;entryX=0;entryY=0.5;entryDx=0;entryDy=0;" parent="WIyWlLk6GJQsqaUBKTNV-1" source="w9apprOF4AOWEV_3NA-S-17" target="YI5HNqCc5b8djM4Ka2MD-7" edge="1">
          <mxGeometry relative="1" as="geometry" />
        </mxCell>
        <mxCell id="w9apprOF4AOWEV_3NA-S-17" value="Save index &lt;i&gt;j &lt;/i&gt;and its route" style="rounded=1;whiteSpace=wrap;html=1;fillColor=none;" parent="WIyWlLk6GJQsqaUBKTNV-1" vertex="1">
          <mxGeometry x="159.99999999999997" y="430" width="167.81" height="37" as="geometry" />
        </mxCell>
        <mxCell id="PELLuqCs5naIXxOrmulJ-12" style="edgeStyle=orthogonalEdgeStyle;rounded=0;orthogonalLoop=1;jettySize=auto;html=1;entryX=0.5;entryY=0;entryDx=0;entryDy=0;" parent="WIyWlLk6GJQsqaUBKTNV-1" source="w9apprOF4AOWEV_3NA-S-12" target="UUrrPUcGa-4PxcQuql53-0" edge="1">
          <mxGeometry relative="1" as="geometry">
            <mxPoint x="254.51999999999995" y="750.253" as="targetPoint" />
          </mxGeometry>
        </mxCell>
        <mxCell id="UUrrPUcGa-4PxcQuql53-3" style="edgeStyle=orthogonalEdgeStyle;rounded=0;orthogonalLoop=1;jettySize=auto;html=1;entryX=0.5;entryY=0;entryDx=0;entryDy=0;" parent="WIyWlLk6GJQsqaUBKTNV-1" source="UUrrPUcGa-4PxcQuql53-0" edge="1">
          <mxGeometry relative="1" as="geometry">
            <Array as="points">
              <mxPoint x="256" y="840" />
              <mxPoint x="390" y="840" />
            </Array>
            <mxPoint x="390.0000000000001" y="870" as="targetPoint" />
          </mxGeometry>
        </mxCell>
        <mxCell id="UUrrPUcGa-4PxcQuql53-0" value="Update&lt;i&gt; route &lt;/i&gt;and &lt;i&gt;done&lt;/i&gt; attributes of customer &lt;i&gt;j&lt;/i&gt; in dataframe" style="rounded=1;whiteSpace=wrap;html=1;fillColor=none;" parent="WIyWlLk6GJQsqaUBKTNV-1" vertex="1">
          <mxGeometry x="146.91" y="763" width="217.62" height="40" as="geometry" />
        </mxCell>
        <mxCell id="YI5HNqCc5b8djM4Ka2MD-3" style="edgeStyle=orthogonalEdgeStyle;rounded=0;orthogonalLoop=1;jettySize=auto;html=1;exitX=0.5;exitY=1;exitDx=0;exitDy=0;entryX=0.5;entryY=0;entryDx=0;entryDy=0;" parent="WIyWlLk6GJQsqaUBKTNV-1" source="YI5HNqCc5b8djM4Ka2MD-0" target="YI5HNqCc5b8djM4Ka2MD-1" edge="1">
          <mxGeometry relative="1" as="geometry" />
        </mxCell>
        <mxCell id="YI5HNqCc5b8djM4Ka2MD-0" value="Loop over served customers &lt;i&gt;j&lt;/i&gt; in solution" style="rounded=1;whiteSpace=wrap;html=1;fillColor=none;" parent="WIyWlLk6GJQsqaUBKTNV-1" vertex="1">
          <mxGeometry x="270" y="182" width="240" height="40" as="geometry" />
        </mxCell>
        <mxCell id="YI5HNqCc5b8djM4Ka2MD-4" style="edgeStyle=orthogonalEdgeStyle;rounded=0;orthogonalLoop=1;jettySize=auto;html=1;exitX=0.5;exitY=1;exitDx=0;exitDy=0;" parent="WIyWlLk6GJQsqaUBKTNV-1" source="YI5HNqCc5b8djM4Ka2MD-1" edge="1">
          <mxGeometry relative="1" as="geometry">
            <mxPoint x="389.9047619047618" y="290.04761904761904" as="targetPoint" />
          </mxGeometry>
        </mxCell>
        <mxCell id="YI5HNqCc5b8djM4Ka2MD-5" style="edgeStyle=orthogonalEdgeStyle;rounded=0;orthogonalLoop=1;jettySize=auto;html=1;entryX=0.5;entryY=0;entryDx=0;entryDy=0;" parent="WIyWlLk6GJQsqaUBKTNV-1" source="YI5HNqCc5b8djM4Ka2MD-1" target="YI5HNqCc5b8djM4Ka2MD-2" edge="1">
          <mxGeometry relative="1" as="geometry" />
        </mxCell>
        <mxCell id="YI5HNqCc5b8djM4Ka2MD-1" value="Evaluate &lt;i&gt;relatedness_function(i,j)&lt;/i&gt;" style="rounded=1;whiteSpace=wrap;html=1;fillColor=none;" parent="WIyWlLk6GJQsqaUBKTNV-1" vertex="1">
          <mxGeometry x="270" y="250" width="240" height="40" as="geometry" />
        </mxCell>
        <mxCell id="YI5HNqCc5b8djM4Ka2MD-8" style="edgeStyle=orthogonalEdgeStyle;rounded=0;orthogonalLoop=1;jettySize=auto;html=1;exitX=0;exitY=0.5;exitDx=0;exitDy=0;entryX=0.5;entryY=0;entryDx=0;entryDy=0;" parent="WIyWlLk6GJQsqaUBKTNV-1" source="YI5HNqCc5b8djM4Ka2MD-2" target="w9apprOF4AOWEV_3NA-S-17" edge="1">
          <mxGeometry relative="1" as="geometry" />
        </mxCell>
        <mxCell id="YI5HNqCc5b8djM4Ka2MD-10" style="edgeStyle=orthogonalEdgeStyle;rounded=0;orthogonalLoop=1;jettySize=auto;html=1;exitX=0.5;exitY=1;exitDx=0;exitDy=0;entryX=0.5;entryY=0;entryDx=0;entryDy=0;" parent="WIyWlLk6GJQsqaUBKTNV-1" source="YI5HNqCc5b8djM4Ka2MD-2" target="YI5HNqCc5b8djM4Ka2MD-7" edge="1">
          <mxGeometry relative="1" as="geometry" />
        </mxCell>
        <mxCell id="YI5HNqCc5b8djM4Ka2MD-2" value="&lt;span&gt;&lt;span&gt;&lt;span&gt;Obtained a &lt;br&gt;new min?&lt;/span&gt;&lt;/span&gt;&lt;/span&gt;" style="rhombus;whiteSpace=wrap;html=1;fillColor=none;" parent="WIyWlLk6GJQsqaUBKTNV-1" vertex="1">
          <mxGeometry x="345" y="320" width="90" height="90" as="geometry" />
        </mxCell>
        <mxCell id="YI5HNqCc5b8djM4Ka2MD-13" style="edgeStyle=orthogonalEdgeStyle;rounded=0;orthogonalLoop=1;jettySize=auto;html=1;exitX=1;exitY=0.5;exitDx=0;exitDy=0;entryX=1;entryY=0.5;entryDx=0;entryDy=0;" parent="WIyWlLk6GJQsqaUBKTNV-1" source="YI5HNqCc5b8djM4Ka2MD-7" target="YI5HNqCc5b8djM4Ka2MD-0" edge="1">
          <mxGeometry relative="1" as="geometry">
            <Array as="points">
              <mxPoint x="580" y="520" />
              <mxPoint x="580" y="202" />
            </Array>
          </mxGeometry>
        </mxCell>
        <mxCell id="YI5HNqCc5b8djM4Ka2MD-19" style="edgeStyle=orthogonalEdgeStyle;rounded=0;orthogonalLoop=1;jettySize=auto;html=1;exitX=0.5;exitY=1;exitDx=0;exitDy=0;" parent="WIyWlLk6GJQsqaUBKTNV-1" source="YI5HNqCc5b8djM4Ka2MD-7" target="YI5HNqCc5b8djM4Ka2MD-18" edge="1">
          <mxGeometry relative="1" as="geometry" />
        </mxCell>
        <mxCell id="YI5HNqCc5b8djM4Ka2MD-7" value="End of &lt;br&gt;loop?" style="rhombus;whiteSpace=wrap;html=1;fillColor=none;" parent="WIyWlLk6GJQsqaUBKTNV-1" vertex="1">
          <mxGeometry x="350" y="480" width="80" height="80" as="geometry" />
        </mxCell>
        <mxCell id="YI5HNqCc5b8djM4Ka2MD-11" value="No" style="text;html=1;align=center;verticalAlign=middle;resizable=0;points=[];autosize=1;strokeColor=none;fillColor=none;" parent="WIyWlLk6GJQsqaUBKTNV-1" vertex="1">
          <mxGeometry x="390" y="398" width="40" height="30" as="geometry" />
        </mxCell>
        <mxCell id="YI5HNqCc5b8djM4Ka2MD-12" value="Yes" style="text;html=1;align=center;verticalAlign=middle;resizable=0;points=[];autosize=1;strokeColor=none;fillColor=none;" parent="WIyWlLk6GJQsqaUBKTNV-1" vertex="1">
          <mxGeometry x="310" y="338" width="40" height="30" as="geometry" />
        </mxCell>
        <mxCell id="YI5HNqCc5b8djM4Ka2MD-14" value="No" style="text;html=1;align=center;verticalAlign=middle;resizable=0;points=[];autosize=1;strokeColor=none;fillColor=none;" parent="WIyWlLk6GJQsqaUBKTNV-1" vertex="1">
          <mxGeometry x="424.85" y="490" width="40" height="30" as="geometry" />
        </mxCell>
        <mxCell id="YI5HNqCc5b8djM4Ka2MD-15" value="Yes" style="text;html=1;align=center;verticalAlign=middle;resizable=0;points=[];autosize=1;strokeColor=none;fillColor=none;" parent="WIyWlLk6GJQsqaUBKTNV-1" vertex="1">
          <mxGeometry x="395" y="550" width="40" height="30" as="geometry" />
        </mxCell>
        <mxCell id="YI5HNqCc5b8djM4Ka2MD-20" style="edgeStyle=orthogonalEdgeStyle;rounded=0;orthogonalLoop=1;jettySize=auto;html=1;exitX=0;exitY=0.5;exitDx=0;exitDy=0;entryX=0.5;entryY=0;entryDx=0;entryDy=0;" parent="WIyWlLk6GJQsqaUBKTNV-1" source="YI5HNqCc5b8djM4Ka2MD-18" target="w9apprOF4AOWEV_3NA-S-12" edge="1">
          <mxGeometry relative="1" as="geometry" />
        </mxCell>
        <mxCell id="YI5HNqCc5b8djM4Ka2MD-33" style="edgeStyle=orthogonalEdgeStyle;rounded=0;orthogonalLoop=1;jettySize=auto;html=1;exitX=1;exitY=0.5;exitDx=0;exitDy=0;entryX=0.5;entryY=0;entryDx=0;entryDy=0;" parent="WIyWlLk6GJQsqaUBKTNV-1" source="YI5HNqCc5b8djM4Ka2MD-18" target="YI5HNqCc5b8djM4Ka2MD-22" edge="1">
          <mxGeometry relative="1" as="geometry" />
        </mxCell>
        <mxCell id="YI5HNqCc5b8djM4Ka2MD-18" value="was cust &lt;i&gt;i&lt;br&gt;&lt;/i&gt;planned?" style="rhombus;whiteSpace=wrap;html=1;fillColor=none;" parent="WIyWlLk6GJQsqaUBKTNV-1" vertex="1">
          <mxGeometry x="344.13" y="585" width="91.75" height="90" as="geometry" />
        </mxCell>
        <mxCell id="YI5HNqCc5b8djM4Ka2MD-22" value="Remove both nodes of customers &lt;i&gt;i&lt;/i&gt; and &lt;i&gt;j&lt;/i&gt; from copy of solution" style="rounded=1;whiteSpace=wrap;html=1;fillColor=none;" parent="WIyWlLk6GJQsqaUBKTNV-1" vertex="1">
          <mxGeometry x="410" y="700" width="231.44" height="37" as="geometry" />
        </mxCell>
        <mxCell id="YI5HNqCc5b8djM4Ka2MD-26" style="edgeStyle=orthogonalEdgeStyle;rounded=0;orthogonalLoop=1;jettySize=auto;html=1;entryX=0.5;entryY=0;entryDx=0;entryDy=0;" parent="WIyWlLk6GJQsqaUBKTNV-1" source="YI5HNqCc5b8djM4Ka2MD-22" target="YI5HNqCc5b8djM4Ka2MD-29" edge="1">
          <mxGeometry relative="1" as="geometry">
            <mxPoint x="524.52" y="750.253" as="targetPoint" />
          </mxGeometry>
        </mxCell>
        <mxCell id="YI5HNqCc5b8djM4Ka2MD-28" style="edgeStyle=orthogonalEdgeStyle;rounded=0;orthogonalLoop=1;jettySize=auto;html=1;" parent="WIyWlLk6GJQsqaUBKTNV-1" source="YI5HNqCc5b8djM4Ka2MD-29" edge="1">
          <mxGeometry relative="1" as="geometry">
            <mxPoint x="390" y="870" as="targetPoint" />
            <Array as="points">
              <mxPoint x="526" y="840" />
              <mxPoint x="390" y="840" />
            </Array>
          </mxGeometry>
        </mxCell>
        <mxCell id="YI5HNqCc5b8djM4Ka2MD-29" value="Update&lt;i&gt; route &lt;/i&gt;and &lt;i&gt;done&lt;/i&gt; attributes of customers &lt;i&gt;i&lt;/i&gt; and &lt;i&gt;j&lt;/i&gt; in dataframe" style="rounded=1;whiteSpace=wrap;html=1;fillColor=none;" parent="WIyWlLk6GJQsqaUBKTNV-1" vertex="1">
          <mxGeometry x="416.90999999999997" y="763" width="217.62" height="40" as="geometry" />
        </mxCell>
        <mxCell id="YI5HNqCc5b8djM4Ka2MD-34" value="Yes" style="text;html=1;align=center;verticalAlign=middle;resizable=0;points=[];autosize=1;strokeColor=none;fillColor=none;" parent="WIyWlLk6GJQsqaUBKTNV-1" vertex="1">
          <mxGeometry x="430" y="598" width="40" height="30" as="geometry" />
        </mxCell>
        <mxCell id="YI5HNqCc5b8djM4Ka2MD-35" value="No" style="text;html=1;align=center;verticalAlign=middle;resizable=0;points=[];autosize=1;strokeColor=none;fillColor=none;" parent="WIyWlLk6GJQsqaUBKTNV-1" vertex="1">
          <mxGeometry x="310" y="598" width="40" height="30" as="geometry" />
        </mxCell>
        <mxCell id="uMBgwJhdj-BDwRjnpbFp-2" style="edgeStyle=orthogonalEdgeStyle;rounded=0;orthogonalLoop=1;jettySize=auto;html=1;entryX=0.5;entryY=0;entryDx=0;entryDy=0;" edge="1" parent="WIyWlLk6GJQsqaUBKTNV-1" source="uMBgwJhdj-BDwRjnpbFp-0" target="uMBgwJhdj-BDwRjnpbFp-1">
          <mxGeometry relative="1" as="geometry" />
        </mxCell>
        <mxCell id="uMBgwJhdj-BDwRjnpbFp-0" value="Do the removal procedure for selected customer &lt;i&gt;j&lt;/i&gt;" style="rounded=1;whiteSpace=wrap;html=1;fillColor=none;" vertex="1" parent="WIyWlLk6GJQsqaUBKTNV-1">
          <mxGeometry x="287.54999999999995" y="870" width="204.91" height="40" as="geometry" />
        </mxCell>
        <mxCell id="uMBgwJhdj-BDwRjnpbFp-1" value="Remove empty routes and return" style="rounded=1;whiteSpace=wrap;html=1;fillColor=none;" vertex="1" parent="WIyWlLk6GJQsqaUBKTNV-1">
          <mxGeometry x="275" y="940" width="230" height="40" as="geometry" />
        </mxCell>
      </root>
    </mxGraphModel>
  </diagram>
</mxfile>
